<svg width="30" height="31" viewBox="0 0 30 31" fill="none" xmlns="http://www.w3.org/2000/svg">
<path d="M26.5828 0.510254H3.22303C2.3782 0.510254 1.56797 0.845861 0.970588 1.44324C0.373204 2.04063 0.0375977 2.85085 0.0375977 3.69568L0.0375977 27.0555C0.0375977 27.9003 0.373204 28.7105 0.970588 29.3079C1.56797 29.9053 2.3782 30.2409 3.22303 30.2409H12.3314V20.1332H8.15049V15.3756H12.3314V11.7495C12.3314 7.62504 14.7868 5.3468 18.5476 5.3468C20.3487 5.3468 22.2321 5.66799 22.2321 5.66799V9.71614H20.1569C18.1123 9.71614 17.4745 10.985 17.4745 12.2864V15.3756H22.039L21.309 20.1332H17.4745V30.2409H26.5828C27.4277 30.2409 28.2379 29.9053 28.8353 29.3079C29.4327 28.7105 29.7683 27.9003 29.7683 27.0555V3.69568C29.7683 2.85085 29.4327 2.04063 28.8353 1.44324C28.2379 0.845861 27.4277 0.510254 26.5828 0.510254Z" fill="white"/>
</svg>
