<svg width="18" height="18" viewBox="0 0 18 18" fill="none" xmlns="http://www.w3.org/2000/svg">
<g clip-path="url(#clip0_8_240)">
<path fill-rule="evenodd" clip-rule="evenodd" d="M14.0625 6.75005C14.0649 7.83479 13.7164 8.89122 13.0691 9.76168L9 15.1876L4.93088 9.76168C4.45444 9.118 4.13751 8.37047 4.00611 7.58051C3.87471 6.79054 3.9326 5.98067 4.175 5.21742C4.41741 4.45418 4.83743 3.75932 5.40056 3.18994C5.96369 2.62056 6.65386 2.19289 7.41439 1.94207C8.17491 1.69124 8.98409 1.62442 9.77546 1.74709C10.5668 1.86976 11.3178 2.17841 11.9667 2.64771C12.6156 3.117 13.1439 3.73354 13.5083 4.44669C13.8726 5.15983 14.0625 5.94923 14.0625 6.75005ZM15.75 6.75005C15.75 8.25755 15.2561 9.64805 14.4225 10.7708L10.0541 16.5938L9 18.0001L7.94475 16.5938L3.5775 10.7708C2.94152 9.91291 2.51817 8.91635 2.34223 7.86302C2.1663 6.8097 2.24279 5.72965 2.56544 4.71164C2.88808 3.69362 3.44767 2.76669 4.19822 2.007C4.94876 1.2473 5.86885 0.676533 6.88289 0.341584C7.89692 0.00663405 8.97596 -0.0829363 10.0313 0.0802322C11.0867 0.243401 12.0883 0.654651 12.9539 1.28019C13.8194 1.90574 14.5242 2.72772 15.0102 3.6786C15.4963 4.62948 15.7499 5.68213 15.75 6.75005ZM9 9.00005C9.59674 9.00005 10.169 8.763 10.591 8.34104C11.0129 7.91909 11.25 7.34679 11.25 6.75005C11.25 6.15332 11.0129 5.58102 10.591 5.15906C10.169 4.7371 9.59674 4.50005 9 4.50005C8.40326 4.50005 7.83097 4.7371 7.40901 5.15906C6.98705 5.58102 6.75 6.15332 6.75 6.75005C6.75 7.34679 6.98705 7.91909 7.40901 8.34104C7.83097 8.763 8.40326 9.00005 9 9.00005Z" fill="white"/>
</g>
<defs>
<clipPath id="clip0_8_240">
<rect width="18" height="18" fill="white"/>
</clipPath>
</defs>
</svg>
