<svg width="29" height="31" viewBox="0 0 29 31" fill="none" xmlns="http://www.w3.org/2000/svg">
<g id="pepicons:letter">
<g id="Group">
<path id="Vector" d="M4.95115 22.3908V23.2358H5.79619H23.1797H24.0248V22.3908V8.62878V7.78374H23.1797H5.79619H4.95115V8.62878V22.3908ZM25.0393 24.4199L25.6527 25.0011L25.0393 24.42C24.9221 24.5436 24.7733 24.6039 24.6284 24.6039H4.34756C4.20266 24.6039 4.05383 24.5436 3.93668 24.42C3.81805 24.2947 3.74396 24.1156 3.74396 23.9199V7.09967C3.74396 6.90394 3.81805 6.72481 3.93667 6.59959C4.05383 6.47592 4.20267 6.41559 4.34756 6.41559H24.6284C24.7733 6.41559 24.9221 6.47592 25.0393 6.59959C25.1579 6.72481 25.232 6.90394 25.232 7.09967V23.9199C25.232 24.1156 25.1579 24.2947 25.0393 24.4199Z" fill="#33638E" stroke="#33638E" stroke-width="1.69007"/>
<path id="Vector_2" d="M25.0016 7.63489L14.7962 16.8094C14.6847 16.9095 14.551 16.9581 14.4203 16.9576C14.2895 16.9572 14.156 16.9078 14.0449 16.8068L3.97002 7.6324L3.96971 7.63212C3.74554 7.42819 3.68762 7.12759 3.7862 6.84757C3.88394 6.56992 4.09365 6.41559 4.34702 6.41559H24.6278C24.8821 6.41559 25.0919 6.5706 25.1891 6.84931C25.2871 7.13042 25.2278 7.43159 25.0016 7.63489ZM8.24384 7.78374H6.06048L7.67494 9.25363L13.8606 14.8853L14.4261 15.4002L14.9946 14.8888L21.2556 9.25704L22.8935 7.78374H20.6905H8.24384Z" fill="#33638E" stroke="#33638E" stroke-width="1.69007"/>
</g>
</g>
</svg>
