<svg width="34" height="34" viewBox="0 0 34 34" fill="none" xmlns="http://www.w3.org/2000/svg">
<path d="M16.8721 9.26864C12.6912 9.26864 9.31891 12.6409 9.31891 16.8218C9.31891 21.0027 12.6912 24.375 16.8721 24.375C21.053 24.375 24.4253 21.0027 24.4253 16.8218C24.4253 12.6409 21.053 9.26864 16.8721 9.26864ZM16.8721 21.7324C14.1703 21.7324 11.9615 19.5302 11.9615 16.8218C11.9615 14.1135 14.1637 11.9113 16.8721 11.9113C19.5805 11.9113 21.7827 14.1135 21.7827 16.8218C21.7827 19.5302 19.5739 21.7324 16.8721 21.7324ZM26.496 8.95967C26.496 9.93916 25.7072 10.7214 24.7342 10.7214C23.7548 10.7214 22.9725 9.93258 22.9725 8.95967C22.9725 7.98676 23.7613 7.19792 24.7342 7.19792C25.7072 7.19792 26.496 7.98676 26.496 8.95967ZM31.4986 10.7477C31.3868 8.38776 30.8478 6.29732 29.1189 4.57501C27.3966 2.8527 25.3062 2.31366 22.9462 2.19533C20.5139 2.05728 13.2237 2.05728 10.7914 2.19533C8.43804 2.30709 6.3476 2.84613 4.61871 4.56844C2.88983 6.29075 2.35736 8.38119 2.23903 10.7411C2.10099 13.1734 2.10099 20.4637 2.23903 22.8959C2.35079 25.2559 2.88983 27.3463 4.61871 29.0686C6.3476 30.7909 8.43146 31.33 10.7914 31.4483C13.2237 31.5864 20.5139 31.5864 22.9462 31.4483C25.3062 31.3366 27.3966 30.7975 29.1189 29.0686C30.8412 27.3463 31.3803 25.2559 31.4986 22.8959C31.6366 20.4637 31.6366 13.18 31.4986 10.7477ZM28.3564 25.5057C27.8436 26.7941 26.851 27.7868 25.556 28.3061C23.6167 29.0752 19.0151 28.8977 16.8721 28.8977C14.7291 28.8977 10.1209 29.0686 8.18823 28.3061C6.89979 27.7933 5.90716 26.8007 5.38784 25.5057C4.61871 23.5664 4.7962 18.9648 4.7962 16.8218C4.7962 14.6788 4.62529 10.0706 5.38784 8.13796C5.90059 6.84951 6.89322 5.85689 8.18823 5.33756C10.1275 4.56844 14.7291 4.74593 16.8721 4.74593C19.0151 4.74593 23.6233 4.57501 25.556 5.33756C26.8444 5.85031 27.837 6.84294 28.3564 8.13796C29.1255 10.0772 28.948 14.6788 28.948 16.8218C28.948 18.9648 29.1255 23.573 28.3564 25.5057Z" fill="white"/>
</svg>
