<svg width="29" height="32" viewBox="0 0 29 32" fill="none" xmlns="http://www.w3.org/2000/svg">
<g id="pajamas:location" clip-path="url(#clip0_8_1286)">
<path id="Vector" fill-rule="evenodd" clip-rule="evenodd" d="M22.6349 11.9477C22.6387 13.7907 22.0778 15.5856 21.0359 17.0645L14.4863 26.2831L7.93669 17.0645C7.16983 15.9709 6.6597 14.7008 6.4482 13.3587C6.2367 12.0165 6.32987 10.6405 6.72005 9.34376C7.11023 8.04699 7.78628 6.86643 8.69269 5.89904C9.5991 4.93165 10.71 4.20504 11.9341 3.77889C13.1583 3.35274 14.4607 3.23921 15.7345 3.44762C17.0083 3.65604 18.217 4.18045 19.2615 4.97778C20.306 5.77512 21.1563 6.82262 21.7427 8.03427C22.3292 9.24591 22.6349 10.5871 22.6349 11.9477ZM25.351 11.9477C25.351 14.509 24.5561 16.8714 23.2143 18.779L16.183 28.6723L14.4863 31.0616L12.7878 28.6723L5.75831 18.779C4.73465 17.3214 4.05323 15.6283 3.77004 13.8387C3.48685 12.049 3.60998 10.214 4.12931 8.48442C4.64863 6.7548 5.54934 5.17993 6.75741 3.88921C7.96548 2.59848 9.44645 1.62874 11.0786 1.05965C12.7108 0.490569 14.4476 0.338388 16.1463 0.615613C17.8451 0.892838 19.4572 1.59156 20.8504 2.65436C22.2436 3.71716 23.3779 5.11372 24.1603 6.72928C24.9427 8.34484 25.3508 10.1333 25.351 11.9477ZM14.4863 15.7705C15.4468 15.7705 16.368 15.3677 17.0471 14.6508C17.7263 13.9339 18.1079 12.9616 18.1079 11.9477C18.1079 10.9338 17.7263 9.96151 17.0471 9.2446C16.368 8.52769 15.4468 8.12494 14.4863 8.12494C13.5258 8.12494 12.6046 8.52769 11.9255 9.2446C11.2463 9.96151 10.8647 10.9338 10.8647 11.9477C10.8647 12.9616 11.2463 13.9339 11.9255 14.6508C12.6046 15.3677 13.5258 15.7705 14.4863 15.7705Z" fill="#33638E"/>
</g>
<defs>
<clipPath id="clip0_8_1286">
<rect width="28.9726" height="30.5822" fill="white" transform="translate(0 0.479492)"/>
</clipPath>
</defs>
</svg>
