<svg width="18" height="18" viewBox="0 0 18 18" fill="none" xmlns="http://www.w3.org/2000/svg">
<rect width="18" height="18" fill="#1E1E1E"/>
<g id="&#212;&#179;&#212;&#188;&#212;&#189;&#212;&#177;&#213;&#142;&#213;&#136;&#213;&#144;" clip-path="url(#clip0_0_1)">
<rect width="1512" height="3439" transform="translate(-764 -3227)" fill="#E6E5E5"/>
<rect id="Rectangle 30" x="-764" y="-118" width="1514" height="330" fill="#33638E"/>
<g id="pepicons:letter">
<g id="Group">
<path id="Vector" d="M3.07554 13.0499V13.5749H3.60054H14.4005H14.9255V13.0499V4.9499V4.4249H14.4005H3.60054H3.07554V4.9499V13.0499ZM2.70054 3.6749H15.3005C15.4 3.6749 15.4954 3.71441 15.5657 3.78474C15.636 3.85506 15.6755 3.95044 15.6755 4.0499V13.9499C15.6755 14.0494 15.636 14.1447 15.5657 14.2151C15.4954 14.2854 15.4 14.3249 15.3005 14.3249H2.70054C2.60108 14.3249 2.5057 14.2854 2.43537 14.2151C2.36505 14.1447 2.32554 14.0494 2.32554 13.9499V4.0499C2.32554 3.95045 2.36505 3.85506 2.43537 3.78474C2.5057 3.71441 2.60108 3.6749 2.70054 3.6749Z" fill="white" stroke="white" stroke-width="1.05"/>
<path id="Vector_2" d="M2.45541 4.33351L2.45561 4.33368L8.71492 9.73351C8.78269 9.79192 8.86911 9.82418 8.95858 9.82445C9.04799 9.82473 9.13456 9.79304 9.20267 9.73511L2.45541 4.33351ZM2.45541 4.33351C2.1925 4.10693 2.35253 3.6749 2.70038 3.6749H15.3004C15.6488 3.6749 15.8089 4.10875 15.5432 4.33511C15.5432 4.33512 15.5432 4.33512 15.5432 4.33512L9.20279 9.73501L2.45541 4.33351ZM5.12138 4.4249H3.70889L4.77848 5.34745L8.62148 8.66215L8.96231 8.95613L9.30489 8.6642L13.1947 5.3495L14.2797 4.4249H12.8542H5.12138Z" fill="white" stroke="white" stroke-width="1.05"/>
</g>
</g>
</g>
<defs>
<clipPath id="clip0_0_1">
<rect width="1512" height="3439" fill="white" transform="translate(-764 -3227)"/>
</clipPath>
</defs>
</svg>
