<svg width="18" height="18" viewBox="0 0 18 18" fill="none" xmlns="http://www.w3.org/2000/svg">
<path d="M5.82928 1.82862L6.63628 1.57062C7.39303 1.32912 8.20153 1.71987 8.52553 2.48337L9.17053 4.00437C9.45103 4.66662 9.29503 5.44587 8.78503 5.93037L7.36378 7.27887C7.45153 8.08587 7.72303 8.88012 8.17753 9.66162C8.60913 10.4177 9.18806 11.0795 9.88003 11.6079L11.587 11.0379C12.2335 10.8226 12.9385 11.0709 13.3345 11.6536L14.2593 13.0111C14.7205 13.6891 14.6373 14.6236 14.065 15.1981L13.4523 15.8139C12.8418 16.4266 11.9695 16.6494 11.1633 16.3974C9.25828 15.8034 7.50853 14.0401 5.91103 11.1076C4.31128 8.17062 3.74653 5.67762 4.21753 3.63162C4.41553 2.77062 5.02828 2.08437 5.82928 1.82862Z" fill="white"/>
</svg>
