<svg width="30" height="32" viewBox="0 0 30 32" fill="none" xmlns="http://www.w3.org/2000/svg">
<g id="fluent:call-24-filled">
<path id="Vector" d="M9.99297 4.03181L11.2919 3.59347C12.51 3.18316 13.8113 3.84705 14.3328 5.14424L15.371 7.72844C15.8225 8.85361 15.5714 10.1776 14.7505 11.0007L12.4629 13.2918C12.6041 14.6629 13.0411 16.0124 13.7727 17.3402C14.4674 18.6248 15.3992 19.7492 16.513 20.6469L19.2606 19.6784C20.3012 19.3127 21.4359 19.7345 22.0733 20.7246L23.5618 23.031C24.3042 24.1829 24.1702 25.7707 23.2491 26.7467L22.2629 27.7929C21.2802 28.834 19.8762 29.2124 18.5785 28.7843C15.5122 27.7751 12.6959 24.7793 10.1246 19.7969C7.54961 14.8069 6.6406 10.5713 7.39871 7.09513C7.71741 5.63228 8.70369 4.46633 9.99297 4.03181Z" fill="#33638E"/>
</g>
</svg>
